<svg xmlns="http://www.w3.org/2000/svg" viewBox="0 0 227.62 73.51"><defs><style>.cls-1{fill:#fff;}</style></defs><g id="Layer_2" data-name="Layer 2"><g id="Layer_1-2" data-name="Layer 1"><path class="cls-1" d="M227.18,21.47H222a.46.46,0,0,0-.37.2l-1.26,2-.25-.51v-10h1.5a.48.48,0,0,0,.42-.25.53.53,0,0,0,0-.49L217.29,6a.49.49,0,0,0-.38-.18h-3.68a.41.41,0,0,0-.33.16l-3.75,4.82-.06.08-.09,0v.06l-1.16,1.51a.44.44,0,0,0-.09.33.41.41,0,0,0,.15.29l.58.48a.44.44,0,0,0,.38.1v5.28H207v.83h1.86l-1.36,5h.92l1.37-5v-.81h0V12.64a.45.45,0,0,0-.44-.45.25.25,0,0,0-.13,0h0L213.23,7l3.47,4.4.62.79a.52.52,0,0,0-.28,0,.48.48,0,0,0-.3.42v3.44a.45.45,0,0,0,.15.33.45.45,0,0,0-.15.33v4.39a.44.44,0,0,0,.45.44h1.14l1.57,3.2a.46.46,0,0,0,.38.23h0a.41.41,0,0,0,.36-.2l1.56-2.46,5,0a.45.45,0,0,0,.44-.45A.45.45,0,0,0,227.18,21.47Zm-8-.22-.16-.32a.44.44,0,0,0-.39-.23h-1V17.27h1.52Zm0-5.66h-1.52V13.65h.05a.45.45,0,0,0,.29-.1l.54-.46h.64Zm-.75-3.42-4.25-5.46h2.51l4,5.46Z"/><path class="cls-1" d="M182.14,21.74l-.28-.19a1,1,0,0,1-.58-.95.54.54,0,0,1,.58-.57h.7v-.86h-.7a1.37,1.37,0,0,0-1.55,1.41,1.84,1.84,0,0,0,.91,1.71l.25.15a.8.8,0,0,1,.42.82c0,.36-.14.59-.58.6h-3.85l-2-11.27a.44.44,0,0,0-.43-.35.44.44,0,0,0-.34.17V8.7h1.55a.47.47,0,0,0,.46-.47V6.71a.5.5,0,0,0-.1-.19l-8-5.54a.45.45,0,0,0-.26-.08h-5.88l-.18,0-2.42,1.46v-1l.1,0a.43.43,0,0,0,.23-.39V.36a.26.26,0,0,0,0-.14v0l-.07,0a.38.38,0,0,0-.31-.13h-1.9l-.17,0-.81.34-.07,0,0,0a.29.29,0,0,0-.09.1.37.37,0,0,0,0,.09l0,.08v.62a.44.44,0,0,0,.44.44l0,2.3-3.82,2.31a.44.44,0,0,0-.22.38v1.5a.47.47,0,0,0,.24.4.5.5,0,0,0,.43,0l.48-.29V28.53l-2.74-10.29a.44.44,0,0,0-.32-.3l-.1,0a.48.48,0,0,0-.31.12l-2.82,2.63V1.58a.46.46,0,0,0-.44-.45H143l-.14,0-2.39.8a.14.14,0,0,0-.1.06.31.31,0,0,0-.1.1.24.24,0,0,0-.06.14l0,6.25-1.34-1.73a.46.46,0,0,0-.35-.16h-1.72a.42.42,0,0,0-.28.1l-5.09,6.52a.45.45,0,0,0,.07.61l.58.49a.47.47,0,0,0,.35.1v2a.43.43,0,0,0-.35.43v.65a.45.45,0,0,0,.35.45v3.51H.5a.45.45,0,1,0,0,.89H132.83a.45.45,0,0,0,.46-.44V17.51a.45.45,0,0,0-.16-.32.46.46,0,0,0,.16-.33V13.42A.43.43,0,0,0,133,13a.41.41,0,0,0-.29,0l4.06-5.23,3.41,4.31v9.83a.45.45,0,1,0,.89,0V2.81h4.33V21.92a.44.44,0,0,0,.45.44.44.44,0,0,0,.43-.44V5.27l.71-.35V21.69a.46.46,0,0,0,.76.33l3-2.82L154.2,32a.45.45,0,0,0,.44.34h.06a.43.43,0,0,0,.37-.44V7.82l7.38-4.47,7.66,4.74v8.66a.46.46,0,0,0,.32.43.45.45,0,0,0,.49-.17l1-1.31,1,2.54a.45.45,0,0,0,.43.28.41.41,0,0,0,.4-.31l1.3-3.93,1.68,10.14a.44.44,0,0,0,.43.33h4.25a1.35,1.35,0,0,0,1.52-1.52A1.54,1.54,0,0,0,182.14,21.74Zm-42-11.09-2.49-3.16h.58L140.18,10ZM147,3.93l-.71.35V2.37a.42.42,0,0,0-.15-.34H147Zm28.82,3.84h-4.12V7.29h4.12ZM158,1.78h.26V3.39l-.26.15ZM170.8,7.47l-8.11-5a.44.44,0,0,0-.47,0l-8.3,5V7l8.56-5.16,8.32,5.22Zm-6.69-5.64h4.11l6.56,4.53h-3.45Zm9.15,14.91-.8-2.09a.4.4,0,0,0-.35-.3h-.06a.44.44,0,0,0-.35.18l-.69.91V8.65h0a.16.16,0,0,0,.15,0l2.63,0v6.42Z"/><rect class="cls-1" x="183.49" y="19.17" width="0.96" height="5.56"/><path class="cls-1" d="M187.45,23.31l-.94-4.14H185.3v5.56h.87v-4l.83,3.53c.12.43.24.5.47.5h.84V19.17h-.86Z"/><path class="cls-1" d="M189.91,23.3V20.6c0-.38.19-.57.46-.57h.89v-.86h-1a1.24,1.24,0,0,0-1.36,1.4v2.77a1.23,1.23,0,0,0,1.36,1.39h1v-.87h-.9C190,23.86,189.91,23.68,189.91,23.3Z"/><path class="cls-1" d="M193,23.37V22.29h1.31v-.86H193V20h1.47v-.86H192V23.4c0,1,.35,1.33,1.22,1.33h1.25v-.86h-1C193.1,23.87,193,23.76,193,23.37Z"/><path class="cls-1" d="M199.5,20.42c0-1-.48-1.5-1.45-1.49H197v.83h1c.43,0,.63.21.63.66a2.27,2.27,0,0,1-.87,1.76A2.38,2.38,0,0,0,196.8,24v.71h2.65V23.9h-1.73a.49.49,0,0,1,0-.12c0-.31.13-.58.67-1.16A2.94,2.94,0,0,0,199.5,20.42Z"/><path class="cls-1" d="M201.53,18.86a1.3,1.3,0,0,0-1.42,1.46v3a1.42,1.42,0,1,0,2.83,0v-3A1.3,1.3,0,0,0,201.53,18.86ZM202,23.4c0,.4-.18.57-.47.57s-.49-.17-.49-.57V20.27c0-.42.19-.58.49-.58s.47.16.47.58Z"/><polygon class="cls-1" points="203.71 20.08 204.21 20.66 204.9 20.14 204.9 24.73 205.83 24.73 205.83 18.93 205.08 18.93 203.71 20.08"/><path class="cls-1" d="M9.45,72.65H0V34H9.45Z"/><path class="cls-1" d="M39.36,72.65h-8.6L23.85,53.11V72.65H15.26V34h8.59l6.91,19.72V34h8.6Z"/><path class="cls-1" d="M45.16,34H68.62V42.2H54.18v7.13h14v7.52h-14v15.8h-9Z"/><path class="cls-1" d="M82.59,72.65H73.14V34h9.45Z"/><path class="cls-1" d="M103.47,72.65V60.15c0-1.85-1.8-2.14-3.86-2.14h-2.2V72.65h-9V34h14.86c5.63,0,8.46,1,8.59,6.88v7.3a6,6,0,0,1-5.8,5.67c3.35.21,6.23,3.09,6.23,6.1V72.65Zm-3-30.89H97.41v8.51h3.06c1.85,0,2.58-.9,2.58-3v-2.5C103.05,42.93,102.53,41.76,100.47,41.76Z"/><path class="cls-1" d="M117.66,42.11c0-6.57,5.37-8.94,11.94-8.94s12,2.37,12,8.94V64.57c0,6.58-5.38,8.94-12,8.94s-11.94-2.36-11.94-8.94Zm8.93,21c0,1.67,1.34,2.58,3,2.58s3-.91,3-2.58V43.53c0-1.67-1.33-2.58-3-2.58s-3,.91-3,2.58Z"/><path class="cls-1" d="M171.24,34V64.57c0,6.58-5.37,8.94-11.94,8.94s-12-2.36-12-8.94V34h9.07V63.16c0,1.67,1.2,2.58,2.88,2.58s2.87-.91,2.87-2.58V34Z"/><path class="cls-1" d="M199.21,34V42h-7V72.65h-9.45V42h-7V34Z"/><path class="cls-1" d="M203.73,34h23.46V42H212.76v7.3h14V56.8h-14v7.9h14.86v8H203.73Z"/></g></g></svg>