<svg xmlns="http://www.w3.org/2000/svg" viewBox="0 0 850.39 274.64"><defs><style>.cls-1{fill:#fff;}</style></defs><g id="Layer_2" data-name="Layer 2"><g id="Layer_1-2" data-name="Layer 1"><path class="cls-1" d="M848.76,80.22l-19.45,0a1.69,1.69,0,0,0-1.4.75l-4.69,7.44-1-1.93V49h5.6a1.76,1.76,0,0,0,1.56-1,1.89,1.89,0,0,0-.15-1.81l-17.49-23.9a1.79,1.79,0,0,0-1.41-.69H796.65a1.53,1.53,0,0,0-1.24.59l-14,18-.21.27-.32.16v.23l-4.34,5.65a1.52,1.52,0,0,0-.35,1.23,1.4,1.4,0,0,0,.58,1.06l2.16,1.81a1.58,1.58,0,0,0,1.43.37V70.74h-7.07v3.09h6.93L775.11,92.4h3.45l5.13-18.67v-3h-.05V47.21A1.68,1.68,0,0,0,782,45.53a.9.9,0,0,0-.47.13.19.19,0,0,0-.16.05l15.3-19.44,13,16.44,2.29,2.94a1.69,1.69,0,0,0-1,.06,1.65,1.65,0,0,0-1.11,1.54V60.12a1.59,1.59,0,0,0,.55,1.21,1.65,1.65,0,0,0-.55,1.24V79a1.65,1.65,0,0,0,1.67,1.66h4.27l5.83,11.92a1.72,1.72,0,0,0,1.44.88h.07a1.57,1.57,0,0,0,1.35-.76l5.83-9.18,18.53.06a1.67,1.67,0,0,0,0-3.34Zm-30-.82-.59-1.19a1.7,1.7,0,0,0-1.47-.89H813.1V64.54h5.7Zm0-21.15h-5.7V51a.86.86,0,0,0,.21,0,1.72,1.72,0,0,0,1.09-.38l2-1.7h2.4ZM816,45.48,800.12,25.05h9.37l15,20.43Z"/><path class="cls-1" d="M680.47,81.21l-1-.69c-1.77-1.18-2.18-2-2.18-3.57a2,2,0,0,1,2.18-2.11H682v-3.2h-2.59c-3.23,0-5.8,1.59-5.8,5.24a6.8,6.8,0,0,0,3.41,6.39l.94.56a3,3,0,0,1,1.53,3.09c0,1.32-.51,2.19-2.13,2.24H663L655.64,47a1.67,1.67,0,0,0-1.62-1.3,1.69,1.69,0,0,0-1.26.62V32.51h5.79a1.75,1.75,0,0,0,1.73-1.76V25.47l0-.3,0-.09a2.19,2.19,0,0,0-.38-.72L630,3.67a1.59,1.59,0,0,0-1-.3H607l-.66.07-9.07,5.47V5.32l.36-.2a1.65,1.65,0,0,0,.9-1.47v-2l0-.33a1.19,1.19,0,0,0-.21-.53l0-.21L598,.48A1.5,1.5,0,0,0,596.88,0h-7.09a1.62,1.62,0,0,0-.64.13l-3,1.26-.29.14-.09.14a1.12,1.12,0,0,0-.36.39,1.88,1.88,0,0,0-.15.32l-.13.31V5a1.65,1.65,0,0,0,1.64,1.66l.08,8.59-14.27,8.62a1.66,1.66,0,0,0-.84,1.45v5.58a1.71,1.71,0,0,0,.9,1.49,1.83,1.83,0,0,0,1.62-.07L576,31.23v75.38L565.78,68.15A1.7,1.7,0,0,0,564.61,67L564.2,67a1.65,1.65,0,0,0-1.14.47l-10.53,9.8V5.89a1.71,1.71,0,0,0-1.67-1.67H534.28a1.48,1.48,0,0,0-.51.09l-8.95,3a.65.65,0,0,0-.36.23,1.33,1.33,0,0,0-.37.36,1.16,1.16,0,0,0-.24.54l-.12,23.33-5-6.43a1.66,1.66,0,0,0-1.29-.63H511a1.68,1.68,0,0,0-1.05.37l-19,24.37a1.68,1.68,0,0,0,.27,2.29l2.16,1.81a1.61,1.61,0,0,0,1.29.38v7.48A1.62,1.62,0,0,0,493.35,63v2.44a1.66,1.66,0,0,0,1.29,1.66V80.22H1.88a1.66,1.66,0,1,0,0,3.31h494.4A1.66,1.66,0,0,0,498,81.89V65.43a1.68,1.68,0,0,0-.56-1.2A1.72,1.72,0,0,0,498,63V50.15a1.6,1.6,0,0,0-1-1.53,1.67,1.67,0,0,0-1.08-.07L511,29l12.74,16.11V81.85a1.67,1.67,0,0,0,1.66,1.68,1.69,1.69,0,0,0,1.66-1.68V10.49h16.17v71.4a1.64,1.64,0,0,0,1.67,1.64,1.61,1.61,0,0,0,1.63-1.64V19.69l2.66-1.31V81a1.68,1.68,0,0,0,1,1.54,1.66,1.66,0,0,0,1.79-.3L563.3,71.74l12.81,48a1.65,1.65,0,0,0,1.61,1.26h.16l.07,0a1.61,1.61,0,0,0,1.41-1.63V29.22l27.56-16.7,28.64,17.72V62.57a1.72,1.72,0,0,0,1.16,1.6,1.68,1.68,0,0,0,1.83-.6l3.76-4.92,3.56,9.5a1.66,1.66,0,0,0,1.58,1A1.58,1.58,0,0,0,649,68.05l4.85-14.71,6.26,37.9a1.66,1.66,0,0,0,1.61,1.21h15.66l.23,0c4.19,0,5.63-2.28,5.66-5.69A5.73,5.73,0,0,0,680.47,81.21ZM523.73,39.79,514.43,28h2.17l7.13,9.19Zm25.45-25.11L546.52,16V8.84A1.62,1.62,0,0,0,546,7.57h3.23ZM656.83,29h-15.4V27.24h15.4ZM590.15,6.65h1v6l-1,.57Zm48,21.27L607.82,9.17a1.69,1.69,0,0,0-1.76,0l-31,18.77v-1.7l32-19.3,31.1,19.5Zm-25-21.1h15.34L653,23.75H640.08Zm34.19,55.72-3-7.81A1.53,1.53,0,0,0,643,53.61l-.24,0a1.6,1.6,0,0,0-1.3.66l-2.58,3.41V32.31h0a.61.61,0,0,0,.54.13l9.82.07V56.4l0,.1Z"/><rect class="cls-1" x="685.54" y="71.64" width="3.6" height="20.76"/><path class="cls-1" d="M700.31,87.07l-3.49-15.43h-4.53V92.4h3.26V77.35l3.07,13.16c.47,1.62.93,1.89,1.76,1.89h3.14V71.64h-3.21Z"/><path class="cls-1" d="M709.51,87V77c0-1.4.7-2.11,1.73-2.11h3.32v-3.2H711c-3.27,0-5.08,1.73-5.08,5.22V87.19c0,3.45,1.81,5.21,5.08,5.21h3.76V89.15h-3.36C710,89.15,709.51,88.47,709.51,87Z"/><path class="cls-1" d="M721,87.33v-4h4.9V80.07H721V74.84h5.51v-3.2h-9.11V87.42c0,3.61,1.31,5,4.58,5h4.67V89.17h-3.82C721.44,89.17,721,88.77,721,87.33Z"/><path class="cls-1" d="M745.33,76.29c0-3.69-1.77-5.59-5.41-5.55h-4v3.09h3.52c1.62,0,2.38.79,2.38,2.46,0,2.32-.62,3.78-3.26,6.56s-3.34,4.48-3.34,6.89V92.4h9.92V89.31H738.7a1.48,1.48,0,0,1-.05-.47c0-1.16.47-2.15,2.51-4.33C744.39,81.14,745.33,79.18,745.33,76.29Z"/><path class="cls-1" d="M752.91,70.47c-3.41,0-5.28,2-5.28,5.46V87.19c0,3.47,1.87,5.44,5.28,5.44s5.28-2,5.28-5.44V75.93C758.19,72.45,756.32,70.47,752.91,70.47Zm1.78,17c0,1.52-.68,2.12-1.78,2.12s-1.83-.6-1.83-2.12V75.73c0-1.55.73-2.16,1.83-2.16s1.78.61,1.78,2.16Z"/><polygon class="cls-1" points="761.06 75.02 762.92 77.18 765.51 75.23 765.51 92.4 769 92.4 769 70.74 766.17 70.74 761.06 75.02"/><path class="cls-1" d="M35.31,271.44H0V127.15H35.31Z"/><path class="cls-1" d="M147,271.44H114.93l-25.83-73v73H57V127.15H89.1l25.83,73.68V127.15H147Z"/><path class="cls-1" d="M168.73,127.15h87.63v30.5H202.44V184.3h52.32v28.08H202.44v59.06H168.73Z"/><path class="cls-1" d="M308.57,271.44H273.25V127.15h35.32Z"/><path class="cls-1" d="M386.58,271.44v-46.7c0-6.92-6.74-8-14.45-8h-8.19v54.72H330.25V127.15h55.53c21,0,31.61,3.86,32.1,25.68v27.29c0,10.43-9.47,20.71-21.67,21.18,12.52.8,23.26,11.56,23.26,22.79v47.35ZM375.35,156H363.94v31.77h11.41c6.9-.16,9.63-3.35,9.63-11.22v-9.32C385,160.38,383.05,156,375.35,156Z"/><path class="cls-1" d="M439.58,157.33c0-24.55,20.07-33.39,44.61-33.39s44.63,8.84,44.63,33.39v83.93c0,24.56-20.06,33.38-44.63,33.38s-44.61-8.82-44.61-33.38ZM473,236c0,6.25,5,9.62,11.23,9.62s11.25-3.37,11.25-9.62V162.62c0-6.24-5-9.63-11.25-9.63S473,156.38,473,162.62Z"/><path class="cls-1" d="M639.75,127.15V241.26c0,24.56-20.06,33.38-44.61,33.38s-44.62-8.82-44.62-33.38V127.15h33.86V236c0,6.25,4.5,9.62,10.76,9.62s10.74-3.37,10.74-9.62V127.15Z"/><path class="cls-1" d="M744.28,127.15v29.7H718.11V271.44H682.8V156.85H656.64v-29.7Z"/><path class="cls-1" d="M761.16,127.15h87.63v29.7H794.86v27.27h52.33v28.1H794.86v29.51h55.53v29.71H761.16Z"/></g></g></svg>